<svg width="1084" height="322" viewBox="0 0 1084 322" fill="none" xmlns="http://www.w3.org/2000/svg">
<g clip-path="url(#clip0_2650_55)">
<path d="M376.567 85.317C384.698 83.797 396.451 87.8702 402.966 92.5563C421.634 105.984 419.692 126.593 419.654 146.775V191.613L419.663 248.915C419.667 260.192 419.825 270.85 419.061 282.131C417.792 300.856 404 316.257 385.201 319.108C374.564 319.976 364.598 317.356 356.059 310.83C338.132 297.128 340.871 274.836 340.884 255.03L340.903 202.466L340.88 148.385C340.871 132.286 338.46 113.868 349.31 100.5C356.946 91.0921 364.678 86.8411 376.567 85.317Z" fill="#F8EEEE"/>
<path d="M1083.09 188.774C1081.64 190.912 1080.67 199.236 1079.84 202.269C1078.27 208.013 1076.09 213.976 1073.85 219.478C1061.1 250.623 1038.99 277.039 1010.57 295.069C981.791 313.062 948.021 321.404 914.17 318.888C863.297 314.793 818.46 286.981 791.147 244.053C769.02 208.807 761.715 166.247 770.826 125.643C780.22 84.1842 805.671 48.1403 841.602 25.4121C876.906 3.25124 919.496 -4.18143 960.223 4.71082C1010.16 15.7544 1051.8 50.0203 1072.23 96.893C1075.14 103.565 1077.67 110.117 1079.74 117.094C1080.67 120.224 1081.55 128.952 1083.09 131.136V188.774ZM933.19 240.402C977.559 236.559 1010.41 197.477 1006.55 153.12C1002.69 108.762 963.59 75.934 919.224 79.804C874.876 83.6723 842.058 122.744 845.913 167.083C849.77 211.422 888.84 244.244 933.19 240.402Z" fill="#F8EEEE"/>
<path d="M0 144.968L0.0408151 144.821C1.02343 141.192 1.15442 134.961 1.70623 130.989C2.30492 126.678 3.36092 123.582 4.43671 119.452C15.0602 78.6621 42.6944 42.827 79.3468 21.6271C115.64 0.872843 158.648 -4.75656 199.062 5.9574C263.853 23.3321 316.112 84.1595 316.399 153.14C316.422 158.55 316.732 164.183 315.307 169.451C312.886 178.334 306.996 185.872 298.959 190.368C286.766 197.243 272.078 195.59 258.395 195.587L216.522 195.568L79.0574 195.558C91.7703 219.111 107.28 234.353 133.582 242.522C155.14 249.218 176.32 240.357 190.053 265.438C194.437 273.612 195.378 283.197 192.669 292.069C189.998 301.175 183.824 308.852 175.5 313.417C162.622 320.383 144.024 318.265 130.201 315.007C125.259 313.842 120.506 313.741 115.365 312.261C58.5668 295.912 13.7327 248.293 2.42287 190.091C1.59434 185.828 1.1596 176.273 0 172.828V144.968ZM78.3767 123.599C88.0301 123.293 98.767 123.593 108.514 123.608L164.208 123.619L237.847 123.587C224.348 99.6228 209.367 83.4701 181.75 75.726C171.768 73.0278 161.372 72.203 151.09 73.2936C128.637 74.1261 108.866 85.0306 93.7038 101.214C84.7975 110.72 84.3508 116.005 78.3767 123.599Z" fill="#F8EEEE"/>
<path d="M478.656 0H486.211C508.326 5.97951 517.119 17.3552 517.802 40.4144C518.904 77.6506 546.255 109.244 581.685 118.969C604.22 125.137 628.283 122.07 648.549 110.446C667.935 99.3977 682.52 81.014 689.121 59.1128C695.158 39.0757 687.515 19.1457 708.982 5.42321C712.259 3.3284 722.998 0.00697594 723.007 0H730.612C760.995 7.92915 763.459 27.2093 759.977 54.0615C754.255 98.1771 732.778 132.213 698.425 159.85C702.828 162.349 714.641 173.441 718.32 177.358C741.479 201.762 756.136 232.992 760.108 266.398C761.091 274.603 762.232 282.965 760.59 291.294C757.402 307.473 742.377 320.103 725.688 319.26C710.885 319.103 694.068 304.905 693.2 289.652C691.782 264.716 687.247 244.726 669.741 225.625C655.543 210.134 633.548 198.626 612.193 197.633C605.323 197.313 597.026 197.291 590.145 198.431C556.886 203.997 529.801 228.207 520.562 260.633C515.251 278.933 521.338 296 506.084 309.773C499.002 316.037 490.856 319.843 481.295 319.279C460.903 318.077 446.24 299.614 448.341 279.615C449.052 272.836 449.226 265.149 450.355 258.589C455.862 228.345 469.957 200.322 490.959 177.868C497.216 171.213 504.417 165.119 511.286 159.071C496.48 150.31 480.333 130.507 471.504 115.896C458.288 94.0258 450.077 70.1966 448.814 44.586C448.437 38.7183 447.891 31.766 449.424 26.207C453.499 11.4327 463.889 3.21596 478.42 0.156486C478.499 0.104324 478.577 0.0521621 478.656 0Z" fill="#F8EEEE"/>
<path d="M371.922 0H388.101C389.319 0.802718 392.495 1.83612 393.892 2.4698C411.119 10.5877 418.613 23.0293 417.444 41.6655C415.802 67.8081 387.606 83.7351 363.607 72.7638C354.267 68.5491 347.025 60.7447 343.52 51.1188C340.053 41.718 340.452 31.3265 344.631 22.2196C350.752 9.03882 359.433 4.52865 371.922 0Z" fill="#F8EEEE"/>
</g>
<defs>
<clipPath id="clip0_2650_55">
<rect width="1083.09" height="322" fill="white"/>
</clipPath>
</defs>
</svg>
